<svg xmlns="http://www.w3.org/2000/svg" xmlns:xlink="http://www.w3.org/1999/xlink" version="1.1" x="0px" y="0px" viewBox="0 0 100 125" style="enable-background:new 0 0 100 100;" xml:space="preserve"><path d="M50,0C22.386,0,0,22.386,0,50s22.386,50,50,50s50-22.386,50-50S77.614,0,50,0z M75.903,63.431  c3.444,3.444,3.444,9.028,0,12.473c-1.722,1.723-3.979,2.583-6.235,2.583c-2.258,0-4.516-0.86-6.237-2.583L50,62.472L36.569,75.903  c-1.723,1.723-3.979,2.583-6.236,2.583c-2.256,0-4.514-0.86-6.235-2.583c-3.445-3.444-3.445-9.028,0-12.473L37.528,50L24.097,36.568  c-3.445-3.444-3.445-9.028,0-12.472c3.443-3.445,9.027-3.445,12.472,0L50,37.527l13.431-13.431c3.444-3.445,9.028-3.445,12.473,0  c3.444,3.444,3.444,9.028,0,12.472L62.472,50L75.903,63.431z"/><text x="0" y="115" fill="#000000" font-size="5px" font-weight="bold" font-family="'Helvetica Neue', Helvetica, Arial-Unicode, Arial, Sans-serif">Created by Javier Cabezas</text><text x="0" y="120" fill="#000000" font-size="5px" font-weight="bold" font-family="'Helvetica Neue', Helvetica, Arial-Unicode, Arial, Sans-serif">from the Noun Project</text></svg>